<?xml version="1.0" encoding="utf-8"?>
<!-- Generator: Adobe Illustrator 21.0.0, SVG Export Plug-In . SVG Version: 6.00 Build 0)  -->
<svg version="1.1" id="Layer_1" xmlns="http://www.w3.org/2000/svg" xmlns:xlink="http://www.w3.org/1999/xlink" x="0px" y="0px"
	 viewBox="0 0 2399 1107" style="enable-background:new 0 0 2399 1107;" xml:space="preserve">
<style type="text/css">
	.st0{clip-path:url(#SVGID_2_);}
	.st1{fill:none;stroke:#00000033;stroke-miterlimit:10;}
	.st2{fill:url(#SVGID_3_);}
	.st3{fill:url(#SVGID_4_);}
</style>
<g>
	<defs>
		<rect id="SVGID_1_" x="6" width="2384" height="1089.8"/>
	</defs>
	<clipPath id="SVGID_2_">
		<use xlink:href="#SVGID_1_"  style="overflow:visible;"/>
	</clipPath>
	<g id="Layer_2" class="st0">
		<path class="st1" d="M-307.7,597.8C-83.2,440,155.4,291.2,277.4,421.1s280.1,228.6,448.7,233.1c256.4,6.9,318.7-336.4,623.5-169
			c92,50.5,129.7,70.7,171.2,52.5s53-82.2,36.2-95.6c-16.6-13.2-35.9-6.5-86.1,9.2c-55.8,17.5-170.6,34.6-232.9,23
			c-49-9.1,152.4,256.3,461.4,230.3s314.7-187.5,581.4-182c166.2,3.5,322,74.2,425.9,101.9"/>
		<path class="st1" d="M-306.5,596.1C-206.3,526.9-102,458.3-7.1,418.7c117-48.8,219.7-64.5,288.3,4.5c17.7,17.8,35.9,35.1,55,51.6
			c114.4,98.4,251.4,173.3,395.8,178.9c123.1,4.4,201.2-71.2,283.8-132.4c89-65.8,182.2-115.5,337.9-32
			c90.9,48.7,128.1,67.2,168.9,48.5s51.9-82,35-95.6c-16.2-13.1-35.5-7-85.3,7.8c-55.5,16.5-169,32.3-232.1,21.2
			c-42.7-7.5,76,168.2,290.6,221.7c19.2,4.8,38.7,8.4,58.4,10.7c14.4,1.6,27.2,2.1,42.1,2.5c15,0.3,30.1-0.1,45.1-1.3
			c5-0.4,10.2-0.8,15.3-1.3c17.7-1.9,34.5-4.3,52-6.7c30.3-4,60.3-10.6,89.5-19.8c50.8-16.2,90.1-37.7,129.5-57.6
			c79.2-39.9,138.8-84.8,254-95c20-1.7,40-2.3,60-1.8c96.9,2.3,188.4,28.8,272.4,53.2c61.6,17.9,112.9,35,157.9,46.6"/>
		<path class="st1" d="M-305.3,594.3C-205.2,526.4-99.6,457.9-4,421.6c117.2-44.5,219.4-62.4,289,3.8c17.9,17,36.2,33.8,55.4,49.6
			c115.6,94.6,253,171.4,397.4,178.2c122.3,5.8,200-67.5,283-126.8c89.7-64.1,183.2-113.4,336.9-33c89.8,46.8,126.6,63.8,166.6,44.6
			c39.7-19.1,50.8-81.7,33.7-95.6c-15.8-12.9-35-7.5-84.6,6.4c-55.1,15.4-167.5,29.9-231.2,19.4c-45.8-7.6,67.1,171.1,283.3,225.9
			c19.4,5,39.1,8.5,59.1,10.6c14.6,1.4,25.8,1.3,40.7,1.3c14.6,0.1,29.2-0.7,43.7-2.4c4.8-0.6,9.7-0.9,14.5-1.6
			c16.6-2.2,32.5-5,50.8-7.2c34.7-4.1,65.4-11.3,90.1-19.8c49.5-16.8,87.5-39.5,129.5-58.5c81.8-36.8,140.8-81.6,257.5-92.3
			c20.2-1.8,40.5-2.5,60.7-1.9c97.8,2.5,188.5,31.1,275.3,54.4c63.8,17,113.1,31.9,159.3,43.3"/>
		<path class="st1" d="M-304.1,592.6C-204,526-97.3,457.5-1,424.5c117.3-40.3,219.1-60.4,289.6,3c18.1,16.3,36.4,32.5,55.9,47.6
			c116.9,90.6,254.6,169.3,399,177.6c121.6,7,198.9-63.7,282-121.2c90.4-62.4,184.2-111.3,336-34c88.7,45,125,60.3,164.3,40.6
			c38.8-19.5,49.6-81.5,32.5-95.5c-15.4-12.7-34.6-7.9-83.8,5c-54.7,14.4-166,27.7-230.3,17.6c-48.8-7.7,58.2,174,276.1,230.2
			c18.8,4.8,39.6,8.9,59.8,10.6c14.8,1.2,24.4,0.4,39.3,0.2c14.2-0.1,28.4-1.3,42.4-3.4c4.5-0.7,9.2-1.1,13.8-1.8
			c15.6-2.5,30.5-5.7,49.6-7.7c35.4-3.7,66.7-11.1,90.7-19.8c48.2-17.5,84.9-41.4,129.6-59.4c84.2-33.9,142.9-78.3,261-89.7
			c20.4-2,40.9-2.6,61.4-2c98.7,2.8,188.5,33.5,278.2,55.6c66.1,16.2,113.4,28.8,160.6,40"/>
		<path class="st1" d="M-302.9,590.9C-202.9,525.5-95,457.2,2,427.4c117.4-36,218.8-58.4,290.3,2.3c18.3,15.5,36.7,31.2,56.3,45.5
			C467,561.9,605,642.4,749.3,652.2c120.9,8.2,197.8-60,281.1-115.6c91.1-60.7,185.2-109.3,335.1-35
			c87.6,43.2,123.4,56.9,161.9,36.7c37.9-19.9,48.5-81.2,31.3-95.5c-15-12.5-34.1-8.4-83,3.6c-54.3,13.4-164.5,25.4-229.4,15.8
			c-51.9-7.7,49.3,176.9,268.8,234.4c18.8,4.9,40.2,9.1,60.4,10.5c14.9,1,23-0.5,38-0.9c13.8-0.3,27.5-1.8,41.1-4.5
			c4.3-0.9,8.7-1.2,13-2c14.5-2.9,28.5-6.4,48.4-8.2c36.1-3.3,68.1-10.9,91.3-19.8c46.8-18,82-43.2,129.6-60.3
			c86.5-31.1,144.9-75,264.5-87c20.6-2.1,41.4-2.8,62.1-2.1c99.6,3,188.5,35.8,281.2,56.8c68.3,15.3,113.6,25.7,162,36.8"/>
		<path class="st1" d="M-301.7,589.1C-201.7,525-92.8,456.8,5.1,430.3c117.4-31.8,218.4-56.3,291,1.5c18.5,14.7,37,29.8,56.8,43.5
			c119.6,82.7,257.9,165,402.3,176.3c120.2,9.4,196.7-56.2,280.2-110c91.8-59,186.3-107.2,334.2-36c86.4,41.3,121.8,53.5,159.6,32.7
			c37-20.3,47.4-81,30.1-95.5c-14.7-12.3-33.7-8.9-82.3,2.2c-53.9,12.4-163,23.2-228.6,14c-55-7.8,40.5,179.8,261.5,238.7
			c18.9,5,40.8,9.4,61.1,10.5c15.1,0.8,21.6-1.3,36.6-2c13.4-0.5,26.7-2.4,39.7-5.5c4-1,8.2-1.3,12.3-2.3c13.4-3.2,26.5-7,47.2-8.7
			c36.8-2.9,69.4-10.7,91.8-19.9c45.4-18.6,79.3-45,129.7-61.2c88.8-28.4,147-71.8,268-84.3c20.9-2.2,41.9-2.9,62.8-2.2
			c100.5,3.3,188.6,38.2,284.1,58c70.5,14.4,113.9,22.6,163.4,33.5"/>
		<path class="st1" d="M-300.5,587.4c99.9-62.8,209.8-131,308.6-154.2c117.4-27.5,218-54.3,291.7,0.8c18.6,14,37.2,28.5,57.3,41.5
			C478,554.2,616.6,638.4,761,651.2c119.5,10.6,195.6-52.5,279.3-104.4c92.6-57.3,187.3-105.1,333.2-37
			c85.3,39.5,120.2,50.1,157.3,28.7c36.1-20.8,46.2-80.7,28.9-95.5c-14.3-12.2-33.2-9.4-81.5,0.7c-53.5,11.4-161.6,21-227.7,12.1
			c-58-7.8,31.6,182.7,254.3,243c18.9,5,41.4,9.6,61.8,10.5c15.3,0.6,20.2-2.2,35.3-3.1c15.4-0.9,29.5-3.6,38.4-6.6
			c3.7-1.2,7.7-1.4,11.5-2.5c12.4-3.5,24.5-7.7,46-9.2c37.4-2.5,70.6-10.4,92.4-19.9c44-19.2,76.4-46.9,129.7-62
			c90.9-25.8,149-68.5,271.5-81.7c21.1-2.3,42.3-3,63.5-2.3c101.4,3.5,188.6,40.6,287.1,59.2c72.7,13.6,114.2,19.5,164.8,30.2"/>
		<path class="st1" d="M-299.3,585.6C-199.4,524.1-88.6,456,11.2,436.1c117.3-23.4,217.5-52.3,292.4,0
			c18.8,13.2,37.5,27.2,57.7,39.5c122.3,74.8,261.2,160.8,405.5,175.1c118.7,11.8,194.5-48.7,278.4-98.7
			c93.3-55.6,188.3-103,332.3-38c84.2,37.7,118.6,46.7,154.9,24.8c35.1-21.2,45.1-80.4,27.7-95.4c-13.9-12-32.8-9.9-80.7-0.7
			c-53.2,10.3-160.1,18.9-226.9,10.3c-61.1-7.8,22.7,185.6,247,247.2c19,5.1,42,9.8,62.5,10.4c15.6,0.4,18.8-3.1,33.9-4.3
			c15.5-1.2,29.1-4.3,37.1-7.6c3.4-1.4,7.2-1.6,10.8-2.8c11.3-3.8,22.5-8.4,44.8-9.7c38.1-2.1,71.9-10.1,93-20
			c42.6-19.8,73.5-48.9,129.8-62.9c93-23.3,151.1-65,275-79c21.3-2.4,42.8-3.2,64.2-2.4c102.3,3.8,188.6,43,290,60.5
			c75,12.7,114.5,16.4,166.1,26.9"/>
		<path class="st1" d="M-298,583.9C-198.3,523.7-86.5,455.6,14.2,439c117.1-19.3,217-50.3,293.1-0.7c19,12.4,37.8,25.8,58.2,37.5
			c123.7,70.7,262.8,158.6,407.1,174.4c118,12.9,193.4-44.9,277.5-93.2c94.1-53.9,189.3-100.6,331.3-39c83,36,117,43.3,152.6,20.8
			c34.2-21.6,44-80.2,26.5-95.4c-13.5-11.8-32.3-10.4-79.9-2.1c-52.8,9.3-158.6,16.8-226,8.5c-64.2-7.8,13.7,189,239.8,251.5
			c19,5.3,42.6,10,63.2,10.4c15.7,0.2,17.4-4,32.5-5.4c15.5-1.4,29.6-3.6,35.7-8.7c3.4-0.8,6.7-1.8,10-3
			c10.3-4.1,20.5-9.1,43.6-10.2c38.8-1.8,73.1-9.8,93.6-20c41.1-20.3,70.7-50.8,129.8-63.8c95.1-20.8,153.2-61.7,278.5-76.3
			c21.6-2.5,43.3-3.3,64.9-2.4c103.2,4.1,188.6,45.3,292.9,61.7c77.2,11.9,114.7,13.2,167.5,23.7"/>
		<path class="st1" d="M-296.8,582.2c99.7-59,212.3-127.1,314.1-140.3c117-15.2,216.5-48.3,293.8-1.4c19.1,11.6,38,24.5,58.6,35.5
			c125.1,66.8,264.4,156.5,408.7,173.8c117.3,14.1,192.4-41.2,276.6-87.5c94.8-52.2,190.3-98.5,330.4-40
			c81.9,34.2,115.4,39.9,150.3,16.9c33.3-22,42.9-79.9,25.3-95.4c-13.2-11.6-31.9-10.9-79.2-3.5c-52.4,8.2-157.1,14.7-225.1,6.7
			c-67.3-7.8,4.8,192,232.5,255.7c19.1,5.3,43.2,10.9,63.9,10.3c15.9-0.5,16-4.8,31.2-6.5c15.5-1.7,29.5-4.2,34.4-9.7
			c3.2-0.9,6.3-2,9.3-3.3c9.3-4.4,18.5-9.8,42.4-10.7c39.5-1.4,76.6-5.9,94.2-20c42.9-12.9,67.8-52.9,129.9-64.7
			c97.1-18.5,155.3-58.4,282-73.7c21.8-2.6,43.7-3.4,65.6-2.5c104.2,4.3,188.7,47.7,295.9,62.9c79.4,11,115,10.1,168.9,20.4"/>
		<path class="st1" d="M-295.6,580.4C-196,522.8-82.6,454.6,20.3,444.8c116.7-11.1,216-46.3,294.4-2.2
			c19.3,10.9,38.3,23.1,59.1,33.5c126.5,62.8,266,154.3,410.3,173.2c116.5,15.3,191.3-37.4,275.7-82c95.6-50.5,191.3-96.4,329.5-41
			c80.8,32.4,113.8,36.5,148,12.9c32.3-22.3,41.7-79.7,24-95.4c-12.8-11.3-31.4-11.4-78.4-4.9c-52,7.2-155.7,12.6-224.3,4.9
			c-70.3-7.8-4.1,194.9,225.2,260c19.1,5.4,43.8,11.2,64.6,10.3c16.1-0.7,14.5-5.7,29.8-7.6c15.6-1.9,29.4-4.7,33.1-10.8
			c2.9-1,5.8-2.1,8.5-3.5c8.4-4.7,16.5-10.5,41.2-11.2c40.2-1.1,78.2-5.3,94.8-20.1c41.9-12.6,64.8-54.9,129.9-65.6
			c99.1-16.2,157.3-55.2,285.5-71c22-2.7,44.2-3.6,66.3-2.6c105.1,4.6,188.7,50,298.8,64.1c81.7,10.1,115.3,7,170.3,17.1"/>
		<path class="st1" d="M-294.4,578.7c99.6-56.4,215.5-111.4,317.8-131c114.6-22,215.4-44.3,295.1-2.9c19.4,10.1,38.6,21.8,59.6,31.5
			C506,535,645.7,628.3,790,648.8c115.8,16.4,190.3-33.6,274.8-76.3c96.4-48.8,192.3-94.3,328.6-42c79.7,30.6,112.2,33.1,145.6,9
			c31.4-22.7,40.6-79.4,22.8-95.3c-12.4-11.1-31-11.9-77.6-6.3c-51.6,6.2-154.2,10.5-223.4,3.1c-73.4-7.8-13,197.8,217.9,264.3
			c19.2,5.5,44.4,10.7,65.2,10.2c16.3-0.4,13.1-6.6,28.4-8.8c15.6-2.2,29.3-5.2,31.7-11.8c2.6-1.2,5.3-2.1,7.8-3.7
			c7.5-5.1,14.5-10.3,40-11.7c40.8-2.3,79.7-4.7,95.3-20.1c40.8-12.3,61.9-57,130-66.5c101.1-14,159.4-51.9,289-68.3
			c22.2-2.8,44.6-3.7,67-2.7c106,4.8,188.7,52.4,301.7,65.3c83.9,9.3,115.6,3.9,171.7,13.8"/>
		<path class="st1" d="M-293.2,577c99.5-55.1,215.8-109.3,319.6-126.4c114.6-18.9,214.8-42.3,295.8-3.7c19.6,9.3,38.9,20.5,60,29.4
			c129.3,54.8,269.3,149.9,413.6,171.9c115.1,17.5,189.3-29.8,273.9-70.7c97.2-47,193.3-92.2,327.6-43c78.6,28.8,110.6,29.8,143.3,5
			c30.5-23.1,39.5-79.2,21.6-95.3c-12-10.9-30.5-12.4-76.8-7.7c-51.2,5.2-152.7,8.4-222.5,1.3c-76.5-7.8-21.9,200.8,210.7,268.5
			c19.3,5.6,45,10.9,65.9,10.2c16.6-0.6,11.7-7.5,27.1-9.9c15.7-2.4,29.1-5.7,30.4-12.9c2.3-1.3,4.9-2.2,7-4
			c6.6-5.5,12.5-10.9,38.8-12.2c41.5-2,81.3-4,95.9-20.2c39.8-12,58.9-59.2,130-67.4c103.1-11.9,161.4-48.6,292.5-65.7
			c22.5-2.9,45.1-3.8,67.7-2.8c106.9,5.1,188.7,54.8,304.7,66.5c86.1,8.4,115.8,0.8,173,10.6"/>
		<path class="st1" d="M-292,575.2C-192.5,521.4-75.8,468,29.5,453.5c114.7-15.8,214.1-40.3,296.5-4.4c19.7,8.6,39.1,19.1,60.5,27.4
			c130.7,50.8,270.9,147.7,415.2,171.3c114.3,18.7,188.2-26,273-65.1c98-45.3,194.4-90,326.7-44c77.4,27,108.9,26.4,141,1
			c29.5-23.4,38.4-78.9,20.4-95.3c-11.7-10.7-30.1-12.9-76.1-9.1c-50.8,4.1-151.3,6.3-221.7-0.5c-79.6-7.7-30.8,203.7,203.4,272.8
			c19.3,5.7,45.6,11.1,66.6,10.2c16.8-0.8,10.3-8.3,25.7-11c15.7-2.7,29-6.2,29.1-13.9c2.1-1.3,4.1-2.8,6.3-4.2
			c4.4-6.9,10.5-11.6,37.6-12.7c42.2-1.7,82.8-3.4,96.5-20.2c38.8-11.7,56-61.3,130.1-68.3c105-9.8,163.5-45.3,296-63
			c22.7-3,45.6-4,68.4-2.9c107.8,5.4,188.8,57.1,307.6,67.7c88.3,7.5,116.1-2.3,174.4,7.3"/>
		<path class="st1" d="M-290.8,573.5c99.4-52.6,216.4-105.4,323.3-117.1c114.9-12.6,213.4-38.2,297.2-5.2
			c19.8,7.8,39.4,17.8,61,25.4c132.2,46.8,272.5,145.5,416.8,170.6c113.6,19.8,187.2-22.2,272.1-59.5c98.9-43.5,195.4-87.9,325.8-45
			c76.3,25.1,107.3,23.1,138.6-2.9c28.6-23.8,37.3-78.6,19.2-95.3c-11.3-10.5-29.6-13.4-75.3-10.5c-50.4,3.1-149.8,4.3-220.8-2.3
			c-82.7-7.7-39.7,206.6,196.2,277c19.4,5.8,46.2,11.3,67.3,10.1c17-1,8.9-9.2,24.4-12.1c15.8-2.9,28.9-6.8,27.7-15
			c1.8-1.4,3.6-2.9,5.5-4.5c3.3-7.3,8.5-12.3,36.4-13.2c42.9-1.4,84.4-2.7,97.1-20.2c37.8-11.4,54.8-51.9,130.1-69.2
			c104.6-24,165.6-42,299.5-60.3c22.9-3.1,46.1-4.2,69.1-3c108.7,5.6,188.8,59.5,310.5,68.9c90.6,6.7,116.4-5.4,175.8,4"/>
		<path class="st1" d="M-289.5,571.7C-190.2,520.5-73,468.1,35.6,459.3c115-9.4,212.7-36.2,297.9-5.9c19.9,7.1,39.7,16.5,61.4,23.4
			c133.6,42.8,274.1,143.3,418.4,170c112.9,20.9,186.2-18.3,271.2-53.9c99.7-41.8,196.4-85.8,324.8-46
			c75.2,23.3,105.7,19.8,136.3-6.9c27.7-24.1,36.1-78.4,18-95.2c-11-10.2-29.2-13.9-74.5-11.9c-50,2.1-148.3,2.3-219.9-4.1
			c-85.8-7.6-48.6,209.6,188.9,281.3c19.4,5.9,46.8,11.5,68,10.1c17.2-1.2,7.5-10.1,23-13.2c15.8-3.2,28.8-7.3,26.4-16
			c1.6-1.5,3.1-3.1,4.8-4.7c2.2-7.8,6.5-13,35.2-13.7c43.6-1.1,85.9-2,97.7-20.3c36.8-11.1,51.6-53.8,130.2-70.1
			c106.8-22.1,167.6-38.8,303-57.7c23.1-3.2,46.5-4.2,69.8-3c109.6,5.9,188.8,61.9,313.5,70.1c92.8,5.8,116.6-8.5,177.2,0.7"/>
		<path class="st1" d="M-288.3,570c99.2-50,217-119.2,326.9-107.8c114.7,11.9,212-34.1,298.6-6.7c20,6.3,40,15.1,61.9,21.4
			C534.1,515.7,674.8,618,819,646.3c112.1,22,185.3-14.5,270.3-48.3c100.6-40,197.5-83.7,323.9-47c74.1,21.5,104.1,16.4,134-10.8
			c26.8-24.4,35-78.1,16.8-95.2c-10.6-10-28.7-14.3-73.7-13.3c-49.6,1.1-146.9,0.2-219-5.9c-88.8-7.5-57.5,212.5,181.6,285.6
			c19.5,6,47.4,11.8,68.7,10c17.3-1.4,6.1-11,21.7-14.4c15.8-3.4,28.6-7.8,25-17.1c1.3-1.6,2.6-3.3,4-4.9c1.1-8.2,4.5-14.8,34-14.2
			c44.3,1,87.5-1.4,98.3-20.3c35.7-10.8,48.5-55.8,130.3-71c109.1-20.2,169.7-35.5,306.5-55c23.4-3.3,47-4.4,70.5-3.1
			c110.6,6.1,188.9,64.2,316.4,71.3c95,5,116.9-11.7,178.6-2.5"/>
		<path class="st1" d="M-287.1,568.3C-187.9,519.5-69.5,450,41.6,465.1c114.3,15.5,211.2-32,299.3-7.4c20.1,5.6,40.3,13.8,62.3,19.4
			c136.6,34.7,277.3,138.8,421.6,168.7c111.4,23.1,184.3-10.6,269.4-42.7c101.4-38.2,198.5-81.6,323-48
			c73,19.7,102.5,13.1,131.7-14.8c25.8-24.7,33.9-77.9,15.6-95.2c-10.3-9.8-28.3-14.8-73-14.8c-49.2,0.1-145.4-1.8-218.2-7.7
			c-91.9-7.5-66.4,215.4,174.3,289.8c19.5,6,48.1,12,69.3,10c17.6-1.6,4.7-11.8,20.3-15.5c15.9-3.7,28.5-8.3,23.7-18.1
			c1.1-1.7,2.1-3.4,3.3-5.2c0-8.6,2.4-15.6,32.8-14.7c45,1.3,89.1-0.8,98.8-20.3c34.7-10.4,45.3-57.9,130.3-71.8
			c111.4-18.2,171.8-32.3,310-52.3c23.6-3.5,47.5-4.5,71.3-3.2c111.5,6.4,188.9,66.6,319.3,72.5c97.3,4.1,117.2-14.8,179.9-5.8"/>
		<path class="st1" d="M-285.9,566.5c99.1-47.4,218.3-117.3,330.6-98.5c113.9,19.1,210.4-29.8,299.9-8.2
			c20.2,4.9,40.6,12.4,62.8,17.4c138,30.7,278.9,136.6,423.3,168.1c110.7,24.2,183.3-6.8,268.5-37.1c102.3-36.4,199.5-79.5,322-49
			c71.9,17.9,100.8,9.8,129.3-18.7c24.9-25,32.8-77.6,14.4-95.2c-9.9-9.5-27.8-15.3-72.2-16.2c-48.8-0.9-144-3.8-217.3-9.5
			c-95-7.4-75.3,218.3,167.1,294.1c19.6,6.1,48.7,12.2,70,10c17.8-1.8,3.3-12.7,18.9-16.6c15.9-3.9,28.4-8.8,22.4-19.2
			c0.8-1.8,1.6-3.6,2.5-5.4c-1.1-9,0.4-16.3,31.6-15.2c45.7,1.6,90.6-0.1,99.4-20.4c33.7-10.1,42.1-60.1,130.3-72.7
			c113.7-16.3,173.8-29,313.5-49.7c23.8-3.6,47.9-4.7,71.9-3.3c112.4,6.7,188.9,69,322.3,73.7c99.5,3.2,117.4-17.9,181.3-9.1"/>
		<path class="st1" d="M-284.7,564.8c99-46.2,218.9-116.5,332.4-93.9s209.6-27.6,300.6-8.9c20.3,4.2,40.9,11.1,63.3,15.4
			C551.1,504,692.2,611.7,836.5,644.8c109.9,25.2,182.4-2.9,267.6-31.5c103.2-34.6,200.6-77.3,321.1-50c70.8,16.1,99.2,6.5,127-22.7
			c24-25.3,31.7-77.3,13.2-95.1c-9.6-9.3-27.3-15.8-71.4-17.6c-48.4-2-142.5-5.9-216.4-11.4c-98.1-7.3-84.1,221.3,159.8,298.3
			c19.7,6.2,49.3,12.4,70.7,9.9c18-2,1.8-13.6,17.6-17.7c16-4.2,28.3-9.4,21.1-20.2c0.6-1.8,1.1-3.7,1.8-5.6
			c-2.2-9.4-1.6-17,30.4-15.7c46.3,1.9,92.2,0.5,100-20.4c32.7-9.8,39-62.4,130.4-73.6c116-14.3,175.9-25.7,317-47
			c24-3.7,48.4-4.8,72.6-3.4c113.3,6.9,188.9,71.3,325.2,75c101.7,2.4,117.7-21,182.7-12.4"/>
		<path class="st1" d="M-283.5,563.1c99-44.9,219.5-115.7,334.3-89.2c113.2,26.1,208.7-25.4,301.3-9.7c20.4,3.5,41.2,9.7,63.7,13.3
			c141,22.6,282.2,132.1,426.5,166.8c109.2,26.3,181.4,1,266.7-25.9c104.1-32.8,201.6-75.2,320.2-50.9
			c69.7,14.3,97.6,3.3,124.7-26.7c23.1-25.5,30.6-77,12-95.1c-9.3-9-26.9-16.3-70.6-19c-48-3-141-7.9-215.6-13.2
			c-101.2-7.2-93,224.2,152.5,302.6c19.7,6.3,49.9,12.6,71.4,9.9c18.2-2.3,0.4-14.5,16.2-18.8c16-4.4,28.1-9.9,19.7-21.3
			c0.3-1.9,0.6-3.9,1-5.9c-3.3-9.8-3.6-17.8,29.2-16.2c47,2.2,93.7,1.2,100.6-20.5c31.7-9.5,35.8-64.7,130.4-74.5
			c118.2-12.2,177.9-22.5,320.5-44.3c24.3-3.8,48.8-5,73.4-3.5c114.2,7.2,189,73.7,328.1,76.2c104,1.5,118-24.1,184.1-15.6"/>
		<path class="st1" d="M-282.3,561.3c98.9-43.6,220.1-114.9,336.1-84.6c112.8,29.5,207.9-23.1,302-10.4c20.4,2.8,41.4,8.4,64.2,11.3
			c142.5,18.5,283.8,129.8,428.1,166.2c108.5,27.3,180.5,4.9,265.8-20.3c105-31,202.7-73.1,319.3-51.9c68.5,12.5,96,0,122.3-30.6
			c22.2-25.8,29.4-76.8,10.7-95.1c-8.9-8.8-26.4-16.8-69.9-20.4c-47.7-4-139.6-9.9-214.7-15c-104.3-7-101.9,227.1,145.3,306.9
			c19.8,6.4,50.5,12.8,72.1,9.8c18.4-2.5-1-15.3,14.8-20c16-4.7,28-10.4,18.4-22.3c0.1-2,0.1-4.1,0.3-6.1
			c-4.4-10.2-5.6-18.5,28-16.7c47.7,2.5,95.3,1.8,101.2-20.5c30.6-9.2,32.7-67.2,130.5-75.4c120.5-10.2,180-19.2,324-41.7
			c24.5-3.9,49.3-5.1,74-3.6c115.1,7.4,189,76,331.1,77.4c106.2,0.7,118.3-27.2,185.5-18.9"/>
		<path class="st1" d="M-281.1,559.6c98.8-42.3,220.8-114.2,337.9-80c112.5,32.9,207.1-20.8,302.7-11.2c20.5,2.1,41.7,7,64.7,9.3
			c143.9,14.4,285.4,127.5,429.7,165.6c107.7,28.4,179.5,8.8,264.9-14.7c105.9-29.1,203.7-71,318.3-52.9
			c67.4,10.6,94.4-3.3,120-34.5c21.3-26.1,28.3-76.5,9.5-95.1c-8.6-8.5-26-17.2-69.1-21.8c-47.3-5-138.1-11.9-213.8-16.8
			c-107.4-6.9-110.8,230,138,311.1c19.8,6.5,51.1,13,72.8,9.8c18.6-2.7-2.4-16.2,13.5-21.1c16.1-4.9,27.9-10.9,17-23.3
			c-0.2-2.1-0.4-4.2-0.5-6.4c-5.5-10.6-7.6-19.2,26.7-17.2c48.4,2.9,96.9,2.5,101.8-20.5c29.6-8.9,29.6-69.7,130.6-76.3
			c122.7-8.1,182.1-15.9,327.5-39c24.7-4,49.8-5.2,74.8-3.7c116,7.7,189,78.4,334,78.6c108.4-0.2,118.5-30.3,186.8-22.2"/>
		<path class="st1" d="M-279.9,557.8c98.8-41,221.4-113.6,339.8-75.3c112.1,36.3,208.3-33.2,303.4-11.9c20.1,4.5,42,5.6,65.1,7.3
			c145.4,10.3,287,125.2,431.3,164.9c107,29.4,178.6,12.7,264-9.1c106.8-27.3,204.8-68.9,317.4-53.9c66.3,8.8,92.8-6.5,117.7-38.5
			c20.4-26.3,27.2-76.3,8.3-95c-8.3-8.2-25.5-17.7-68.3-23.2c-46.9-6-136.7-13.9-213-18.6c-110.5-6.8-119.7,232.9,130.7,315.4
			c19.9,6.5,51.7,13.2,73.5,9.8c18.8-2.9-3.8-17.1,12.1-22.2c16.1-5.2,27.8-11.4,15.7-24.4c-0.4-2.2-0.9-4.4-1.2-6.6
			c-6.6-11-9.6-20,25.5-17.7c49.1,3.2,98.4,3.1,102.3-20.6c28.6-8.6,26.6-84.8,130.6-77.2c124.8,9.1,184.1-12.7,331-36.3
			c24.9-4.1,50.2-5.4,75.4-3.8c116.9,7.9,189,80.8,337,79.8c110.6-1.1,118.8-33.5,188.2-25.5"/>
		<path class="st1" d="M-278.6,556.1c98.7-39.8,222.1-113,341.6-70.7c111.8,39.6,207-30.9,304-12.6c20.3,3.8,42.3,4.3,65.6,5.3
			c146.9,6.2,288.6,122.9,433,164.3c106.3,30.5,177.7,16.7,263.1-3.5c107.8-25.4,205.8-66.8,316.5-54.9c65.2,7,91.2-9.7,115.3-42.5
			c19.5-26.5,26.1-76,7.1-95c-7.9-8-25-18.2-67.5-24.6c-46.5-7-135.2-15.9-212.1-20.4c-113.6-6.7-128.6,235.8,123.5,319.6
			c19.9,6.6,52.3,13.3,74.1,9.7c19-3.1-5.2-18,10.8-23.3c16.2-5.4,27.6-12,14.4-25.4c-0.7-2.3-1.4-4.6-2-6.8
			c-7.7-11.5-11.6-20.7,24.3-18.2c49.8,3.5,100,3.8,102.9-20.6c27.6-8.3,23.7-87.2,130.7-78.1c126.8,10.8,186.2-9.4,334.5-33.7
			c25.1-4.2,50.7-5.5,76.1-3.9c117.9,8.2,189.1,83.2,339.9,81c112.9-1.9,119.1-36.6,189.6-28.7"/>
		<path class="st1" d="M-277.4,554.4c98.7-38.5,222.9-112.4,343.4-66c111.6,42.9,205.7-28.5,304.7-13.4c20.5,3.1,42.6,3.7,66,3.3
			c148.4-2.8,290.2,120.6,434.6,163.7c105.5,31.5,176.8,20.6,262.2,2.1c108.7-23.5,206.8-64.7,315.6-55.9c64.1,5.2,89.7-13,113-46.4
			c18.7-26.8,25-75.7,5.9-95c-7.6-7.7-24.6-18.7-66.8-26c-46.1-8-133.7-17.9-211.2-22.2c-116.7-6.5-137.5,238.7,116.2,323.9
			c20,6.7,52.9,13.5,74.8,9.7c19.2-3.4-6.6-18.8,9.4-24.5c16.2-5.7,27.5-12.5,13-26.5c-0.8-2.4-1.7-4.8-2.7-7.1
			c-6.9-13.1-13.6-21.5,23.1-18.7c50.5,3.8,101.5,4.4,103.5-20.6c26.6-8,20.8-89.7,130.7-79c128.9,12.6,188.3-6.2,338-31
			c25.4-4.3,51.2-5.6,76.9-3.9c118.8,8.5,189.1,85.5,342.8,82.2c115.1-2.8,119.4-39.7,191-32"/>
		<path class="st1" d="M-276.2,552.6c98.6-37.2,223.6-111.8,345.3-61.4c111.3,46.1,204.3-26,305.4-14.1c20.7,2.4,42.9,2.3,66.5,1.3
			c149.7-6.9,291.9,118.2,436.2,163c104.8,32.5,175.8,24.6,261.3,7.7c109.6-21.6,207.9-62.6,314.6-56.9c63,3.3,88.1-16.2,110.7-50.4
			c17.8-27,23.9-75.4,4.7-95c-7.3-7.4-24.1-19.1-66-27.4c-45.7-9-132.3-19.9-210.4-24C1172.3,389,1145.7,637,1401,723.5
			c20.1,6.8,53.5,13.7,75.5,9.7c19.4-3.6-8-19.7,8-25.6c16.3-5.9,27.4-13,11.7-27.5c-1.2-2.4-2.1-5-3.5-7.3
			c-8.2-13.5-15.6-22.2,21.9-19.2c51.2,4.1,103.1,5.1,104.1-20.7c25.5-7.7,17.9-92.2,130.8-79.9c130.9,14.3,190.3-2.9,341.5-28.3
			c25.6-4.4,51.6-5.8,77.6-4c119.7,8.7,189.1,87.9,345.8,83.4c117.3-3.7,119.6-42.8,192.4-35.3"/>
		<path class="st1" d="M-275,550.9c98.5-35.9,224.4-111.3,347.1-56.8c111.1,49.4,203-23.4,306.1-14.9c20.9,1.7,43.2,0.2,67-0.8
			c151.3-6.2,293.5,115.9,437.8,162.4c104.1,33.5,174.9,28.6,260.4,13.4c110.5-19.7,208.9-60.5,313.7-57.9
			c61.9,1.5,86.6-19.4,108.3-54.3c16.9-27.2,22.8-75.2,3.5-95c-7-7.2-23.7-19.6-65.2-28.8c-45.3-10-130.8-21.9-209.5-25.8
			c-122.8-6.2-155.2,244.5,101.7,332.4c20.1,6.9,54.1,13.9,76.2,9.6c19.6-3.8-9.4-20.6,6.7-26.7c16.3-6.2,24.6-11,10.4-28.6
			c-1.8-2.2-2.6-5.2-4.2-7.5c-9.5-13.9-17.6-22.9,20.7-19.7c51.8,4.4,104.7,5.7,104.7-20.7c24.5-7.4,15-94.7,130.8-80.8
			c133,16,192.4,0.3,345-25.6c25.8-4.5,52.1-5.9,78.3-4.1c120.6,9,189.2,90.2,348.7,84.6c119.6-4.5,119.9-45.9,193.7-38.6"/>
		<path class="st1" d="M-273.8,549.2c98.5-34.6,225.2-110.8,348.9-52.2c110.8,52.6,202-6.2,306.8-15.6c21-1.9,43.5-1.1,67.4-2.8
			c152.8-10.3,295.1,113.6,439.4,161.8c103.4,34.5,174,32.6,259.5,19c111.5-17.7,210-56.7,312.8-58.9c60.8-1.3,85-22.6,106-58.3
			c16.1-27.4,21.7-74.9,2.3-94.9c-6.7-6.9-23.2-20.1-64.4-30.2c-44.9-11-129.4-23.8-208.6-27.6c-125.9-6-164.1,247.4,94.4,336.7
			c20.2,7,54.7,14.1,76.9,9.6c19.8-4-10.8-21.4,5.3-27.8c16.3-6.4,24.7-11.6,9-29.6c-2-2.3-3.2-5.4-5-7.8
			c-10.7-14.3-19.6-23.7,19.5-20.2c52.5,4.7,106.2,6.3,105.3-20.8c23.5-7.1,12.1-97.3,130.9-81.7c135,17.8,194.4,3.6,348.5-23
			c26.1-4.7,52.6-6.1,79-4.2c121.5,9.2,189.2,92.6,351.6,85.8c121.8-5.4,120.2-49,195.1-41.8"/>
		<path class="st1" d="M-272.6,547.4c98.4-33.4,226-110.4,350.8-47.5c110.7,55.8,201.2-3.7,307.5-16.4c21.1-2.5,43.8-2.5,67.9-4.8
			c154.3-14.5,296.8,111.2,441,161.1c102.7,35.5,173.1,36.6,258.6,24.6c112.4-15.8,211.1-56.3,311.8-59.9
			c59.7-2.1,83.5-25.8,103.7-62.3c15.3-27.6,20.6-74.6,1-94.9c-6.4-6.6-22.8-20.6-63.7-31.6c-44.5-12-127.9-25.8-207.8-29.4
			c-129-5.9-173,250.3,87.1,340.9c20.2,7,55.3,14.3,77.6,9.5c20-4.3-12.3-22.3,4-29c16.4-6.7,24.8-12.3,7.7-30.7
			c-2.2-2.4-3.7-5.5-5.7-8c-12-14.7-21.6-24.4,18.3-20.7c53.2,5,107.8,7,105.8-20.8c22.5-6.8,9.3-99.8,130.9-82.5
			c137.1,19.5,196.5,6.8,352-20.3c26.3-4.8,53-6.2,79.7-4.3c122.4,9.5,189.2,95,354.6,87c124-6.2,120.4-52.1,196.5-45.1"/>
		<path class="st1" d="M-271.4,545.7c98.4-32.1,226.9-109.9,352.6-42.9c110.5,58.9,200.5-1.1,308.2-17.1c21.2-3.1,44-3.9,68.4-6.8
			c155.8-18.7,298.4,108.8,442.7,160.5c101.9,36.5,172.2,40.6,257.7,30.2c113.3-13.8,212.1-54.2,310.9-60.9c58.6-4,82-29,101.4-66.2
			c14.4-27.8,19.5-74.3-0.2-94.9c-6-6.3-22.3-21-62.9-33c-44.1-13-126.4-27.8-206.9-31.2c-132.1-5.7-181.9,253.2,79.9,345.2
			c20.3,7.1,55.9,14.5,78.3,9.5c20.2-4.5-13.7-23.2,2.6-30.1c16.4-6.9,24.9-12.9,6.4-31.7c-2.5-2.5-4.2-5.7-6.5-8.3
			c-13.2-15-23.6-25.2,17.1-21.2c53.9,5.3,109.3,7.7,106.4-20.8c21.4-6.5,6.4-102.4,131-83.5c139.2,21.2,198.5,10.1,355.5-17.6
			c26.5-4.9,53.5-6.3,80.4-4.4c123.4,9.8,189.2,97.3,357.5,88.2c126.3-7.1,120.7-55.3,197.9-48.4"/>
		<path class="st1" d="M-270.1,543.9c98.3-30.8,227.8-109.5,354.4-38.2c110.4,62.1,199.7,1.6,308.9-17.9c21.2-3.8,44.3-5.3,68.8-8.8
			c157.2-22.9,300,106.4,444.3,159.9c101.2,37.5,171.2,44.6,256.8,35.8c114.3-11.8,213.2-52.2,310-61.9c57.5-5.8,80.5-32.2,99-70.2
			c13.6-28,18.4-74.1-1.4-94.9c-5.7-6-21.9-21.5-62.1-34.5c-43.7-14-125-29.8-206-33c-135.2-5.5-190.7,256.1,72.6,349.4
			c20.3,7.2,56.5,14.7,78.9,9.5c20.4-4.7-15.1-24,1.2-31.2c16.5-7.2,25-13.6,5-32.8c-2.7-2.6-4.7-5.9-7.2-8.5
			c-14.4-15.4-25.6-25.9,15.9-21.7c54.6,5.6,110.9,8.3,107-20.9c20.4-6.2,3.6-105,131-84.3c141.2,22.8,200.6,13.3,359-15
			c29.4-5.3,56-6.4,81.1-4.5c124.3,10,189.3,99.7,360.4,89.4c128.5-8,121-58.4,199.2-51.7"/>
		<path class="st1" d="M-268.9,542.2c98.2-29.5,228.7-109.1,356.3-33.6c110.3,65.3,199,4.2,309.5-18.6c21.4-4.4,44.6-6.6,69.3-10.8
			C624.9,452.1,767.9,583.2,912,638.4c100.5,38.5,170.3,48.7,255.9,41.4c115.2-9.8,214.3-50.1,309-62.9c56.4-7.6,79-35.3,96.7-74.1
			c12.8-28.2,17.3-73.8-2.6-94.8c-5.4-5.8-21.4-22-61.3-35.9c-43.3-15-123.5-31.7-205.2-34.9c-138.3-5.3-199.6,258.9,65.3,353.7
			c20.4,7.3,57.1,14.8,79.6,9.4c20.6-5-16.5-24.9-0.1-32.3s25-14.2,3.7-33.8c-2.9-2.7-5.3-6-8-8.8c-15.6-15.8-27.6-26.7,14.7-22.2
			c55.3,5.8,112.4,8.9,107.6-20.9c19.4-5.8,0.7-107.5,131.1-85.2c143.3,24.5,202.7,16.6,362.5-12.3c29.8-5.4,56.6-6.6,81.8-4.6
			c125.2,10.3,189.3,102.1,363.4,90.7c130.7-8.8,121.2-61.5,200.6-54.9"/>
		<path class="st1" d="M-267.7,540.5c98.1-28.2,229.6-108.7,358.1-28.9c110.2,68.5,198.3,6.9,310.2-19.4c21.5-5,44.9-8,69.8-12.8
			C630.5,448,773.7,581,917.9,637.9c99.8,39.4,169.4,52.7,255,47c116.2-7.7,215.3-48,308.1-63.9c55.3-9.5,77.6-38.5,94.4-78.1
			c12-28.3,16.2-73.5-3.8-94.8c-5.1-5.5-20.9-22.5-60.6-37.3c-42.9-16-122-33.7-204.3-36.7c-141.4-5.1-208.5,261.8,58.1,358
			c20.5,7.4,57.7,15,80.3,9.4c20.8-5.2-17.9-25.8-1.5-33.4s25.1-14.9,2.4-34.9c-3.1-2.8-5.8-6.2-8.7-9
			c-16.8-16.1-29.6-27.4,13.5-22.7c56,6.1,114,9.6,108.2-20.9c18.4-5.5-2.1-110.1,131.1-86.1c145.4,26.2,204.7,19.8,366-9.6
			c30.1-5.5,57.1-6.7,82.5-4.7c126.1,10.5,189.3,104.4,366.3,91.9c132.9-9.7,121.5-64.6,202-58.2"/>
		<path class="st1" d="M-266.5,538.7c98.1-27,230.6-108.4,359.9-24.3C203.6,586,291,524,404.3,494.3c21.6-5.6,45.2-9.4,70.2-14.9
			c161.6-35.5,305,99.3,449.1,158c99.1,40.4,168.5,56.8,254.1,52.6c117.1-5.7,216.4-45.9,307.2-64.9c54.2-11.3,76.1-41.7,92-82
			c11.3-28.5,15-73.2-5-94.8c-4.8-5.2-20.5-22.9-59.8-38.7c-42.5-17-120.6-35.7-203.4-38.5c-144.5-4.9-217.4,264.7,50.8,362.2
			c20.5,7.5,58.3,15.2,81,9.3c21-5.4-19.3-26.7-2.8-34.6s25.1-15.5,1-35.9c-3.4-2.9-6.3-6.3-9.5-9.2c-18-16.5-31.6-28.2,12.3-23.2
			c56.7,6.4,115.6,10.2,108.8-21c17.4-5.2-5-112.7,131.2-87c147.6,27.9,206.8,23.1,369.5-7c30.5-5.6,57.7-6.8,83.2-4.7
			c127,10.8,189.4,106.8,369.3,93.1c135.2-10.5,121.8-67.7,203.4-61.5"/>
		<path class="st1" d="M-265.3,537c98-25.7,231.6-108,361.8-19.7c110.1,74.7,196.9,12.3,311.6-20.9c21.7-6.3,45.5-10.7,70.7-16.9
			c163-39.7,306.7,96.8,450.7,157.3c98.4,41.3,167.6,55,253.2,58.2c118,4.4,217.4-43.9,306.3-65.9c53.1-13.2,74.7-44.9,89.7-86
			c10.5-28.7,14-73-6.2-94.8c-4.5-4.9-20-23.4-59-40.1c-42.1-18-119.1-37.6-202.6-40.3c-147.6-4.6-226.3,267.6,43.5,366.5
			c20.6,7.5,58.9,15.4,81.7,9.3c21.2-5.7-20.7-27.5-4.2-35.7s25.1-16.2-0.3-37c-3.6-3-6.8-6.5-10.2-9.5
			c-19.2-16.8-33.6-28.9,11.1-23.7c57.4,6.7,117.1,10.9,109.3-21c16.3-4.9-7.8-115.4,131.2-87.9c149.7,29.5,208.8,26,373-4.3
			c30.8-5.8,58.3-7,83.9-4.8c127.9,11,189.4,109.2,372.2,94.3c137.4-11.4,122.1-70.8,204.8-64.8"/>
		<path class="st1" d="M-264.1,535.3c97.9-24.4,232.7-107.6,363.6-15c110.1,77.9,196.3,15,312.3-21.6c21.8-6.9,45.8-12.1,71.1-18.9
			c164.5-43.9,308.4,94.4,452.4,156.7c97.7,42.3,166.7,59.3,252.3,63.8c118.8,6.2,218.5-41.8,305.3-66.9c52-15,73.3-48,87.4-89.9
			c9.7-28.9,12.8-72.7-7.4-94.7c-4.2-4.6-19.6-23.9-58.3-41.5c-41.7-19-117.7-39.6-201.7-42.1c-150.7-4.4-235.1,270.5,36.3,370.7
			c20.6,7.6,59.5,15.6,82.4,9.3c21.4-5.9-22.1-28.4-5.6-36.8s25-16.8-1.6-38c-3.8-3-7.3-6.6-11-9.7c-20.4-17.2-35.6-29.7,9.9-24.2
			c58.1,7,118.7,11.5,109.9-21.1c15.3-4.6-10.6-118,131.3-88.8c151.8,31.2,210.8,29.3,376.5-1.6c31.2-5.9,58.9-7.1,84.6-4.9
			c128.8,11.3,189.4,111.5,375.1,95.5c139.6-12.3,122.3-73.9,206.1-68"/>
		<path class="st1" d="M-262.9,533.5c97.9-23.1,233.7-107.3,365.4-10.4c110.1,81,195.6,17.7,313-22.4c21.9-7.5,46-13.5,71.6-20.9
			c165.9-48.1,310,92,454,156c97.1,43.2,165.9,63.7,251.4,69.4c119.6,8,219.5-39.8,304.4-67.9c50.9-16.9,71.9-51.2,85-93.9
			c9-29.1,11.8-72.4-8.6-94.7c-3.9-4.3-19.1-24.3-57.5-42.9c-41.3-20-116.2-41.6-200.8-43.9c-153.7-4.2-244,273.3,29,375
			c20.7,7.7,60.1,15.7,83,9.2c21.6-6.1-23.5-29.3-6.9-37.9s25-17.4-3-39c-4.1-3.1-7.8-6.8-11.7-10c-21.6-17.5-37.6-30.5,8.7-24.7
			c58.8,7.3,120.2,12.2,110.5-21.1c14.3-4.3-13.4-120.6,131.3-89.7c153.9,32.9,212.9,32.5,380,1c31.6-6.1,59.5-7.3,85.3-5
			c129.8,11.6,189.4,113.9,378,96.7c141.9-13.1,122.6-77,207.5-71.3"/>
		<path class="st1" d="M-261.7,531.8c97.8-21.8,234.8-107,367.3-5.7c110.1,84.2,195,20.5,313.7-23.1c22-8.1,46.3-14.9,72.1-22.9
			c167.3-52.3,311.7,89.5,455.6,155.4c96.4,44.2,165,68.1,250.5,75c120.4,9.7,220.6-37.7,303.5-68.9c49.8-18.7,70.5-54.4,82.7-97.8
			c8.2-29.3,10.7-72.1-9.8-94.7c-3.7-4-18.7-24.8-56.7-44.3c-40.9-21-114.7-43.6-200-45.7c-156.8-3.9-252.9,276.2,21.7,379.3
			c20.8,7.8,60.7,15.9,83.7,9.2c21.8-6.4-25-30.2-8.3-39s25-18-4.3-40.1c-4.3-3.2-8.3-7-12.5-10.2c-22.7-17.9-39.6-31.2,7.5-25.2
			c59.4,7.6,121.8,12.8,111.1-21.1c13.3-4-16.3-123.2,131.4-90.6c156.1,34.5,214.9,35.8,383.5,3.7c31.9-6.2,60-7.4,86-5.1
			c130.7,11.8,189.5,116.3,381,97.9c144.1-14,122.9-80.2,208.9-74.6"/>
		<path class="st1" d="M-260.5,530c97.7-20.5,235.9-106.6,369.1-1.1c110.2,87.4,194.5,23.3,314.4-23.8c22.2-8.7,46.6-16.2,72.5-24.9
			c168.7-56.5,313.4,87,457.2,154.8c95.7,45.1,163.8,77.2,249.6,80.6c121.6,4.8,221.6-35.7,302.5-69.9
			c48.7-20.6,69.1-57.6,80.4-101.8c7.5-29.5,9.6-71.8-11.1-94.7c-3.3-3.7-18.2-25.3-55.9-45.7c-40.5-22-113.2-45.5-199.1-47.5
			c-159.9-3.7-261.7,279.1,14.5,383.5c20.8,7.9,61.3,16.1,84.4,9.1c22-6.6-26.4-31-9.6-40.2s25-18.7-5.6-41.1
			c-4.5-3.3-8.9-7.1-13.2-10.4c-23.9-18.2-41.6-32,6.3-25.7c60.1,7.9,123.3,13.5,111.7-21.2c12.3-3.7-19.1-125.9,131.4-91.5
			c158.2,36.2,217,39,387,6.4c32.3-6.3,60.6-7.5,86.7-5.2c131.6,12.1,189.5,118.6,383.9,99.1c146.3-14.8,123.1-83.3,210.3-77.9"/>
		<path class="st1" d="M-259.2,528.3c97.7-19.3,237.1-106.3,370.9,3.5c110.2,90.5,193.9,26,315-24.6c22.3-9.3,46.9-17.6,73-26.9
			c170.2-60.8,315.1,84.6,458.8,154.2c95,46,162.8,81.4,248.7,86.2c122.5,7,222.7-33.7,301.6-70.9c47.6-22.5,67.8-60.8,78.1-105.8
			c6.8-29.7,8.4-71.5-12.3-94.6c-3.1-3.4-17.8-25.7-55.2-47.1c-40.2-23-111.8-47.5-198.2-49.3c-163-3.5-270.4,281.4,7.2,387.8
			c20.9,7.9,61.9,16.3,85.1,9.1c22.1-6.8-27.8-31.9-11-41.3s24.9-19.3-7-42.2c-4.8-3.4-9.4-7.3-14-10.7c-25-18.6-43.6-32.7,5.1-26.2
			c60.8,8.2,124.9,14.1,112.3-21.2c11.2-3.4-21.9-128.5,131.5-92.4c160.4,37.8,219.1,42.3,390.5,9c32.6-6.4,61.2-7.7,87.4-5.3
			c132.5,12.3,189.5,121,386.9,100.3c148.5-15.7,123.4-86.4,211.6-81.1"/>
		<path class="st1" d="M-258,526.6c97.6-18,238.2-106,372.8,8.2c110.3,93.6,193.4,28.8,315.7-25.4c22.5-9.9,47.1-19,73.4-29
			c171.5-65,316.8,82.1,460.4,153.5c94.3,46.9,161.9,85.5,247.8,91.8c123.4,9.1,223.7-31.6,300.7-71.8
			c46.5-24.3,66.5-63.9,75.7-109.7c6.1-29.9,7.3-71.3-13.5-94.6c-2.8-3.1-17.3-26.2-54.4-48.5c-39.8-24-110.3-49.4-197.4-51.1
			c-166.1-3.2-279.3,284.3-0.1,392c20.9,8,62.5,16.5,85.8,9.1c22.3-7.1-29.2-32.8-12.4-42.4s24.9-19.9-8.3-43.2
			c-5-3.5-9.9-7.4-14.7-10.9c-26.2-19-45.6-33.5,3.9-26.7c61.5,8.5,126.5,14.8,112.8-21.2c10.2-3.1-24.7-131.2,131.5-93.3
			c162.5,39.5,221.1,45.6,394,11.7c33-6.5,61.8-7.8,88.1-5.4c133.4,12.6,189.5,123.3,389.8,101.5c150.8-16.6,123.7-89.5,213-84.4"/>
		<path class="st1" d="M-256.8,524.8c97.6-16.7,239.4-105.6,374.6,12.8c110.4,96.8,192.8,31.5,316.4-26.1
			c22.6-10.5,47.4-20.4,73.9-31c172.9-69.2,318.6,79.6,462.1,152.9c93.7,47.8,160.9,89.6,246.9,97.4
			c124.3,11.3,224.8-29.6,299.7-72.8c45.4-26.2,65.1-67.1,73.4-113.7c5.3-30.1,6.3-71-14.7-94.6c-2.5-2.8-16.9-26.6-53.6-50
			c-39.4-25-108.9-51.4-196.5-52.9c-169.2-2.8-288.2,287.3-7.4,396.4c21,8.1,63.1,16.6,86.5,9c22.5-7.3-30.6-33.7-13.7-43.5
			s24.8-20.5-9.6-44.3c-5.2-3.6-10.4-7.6-15.5-11.2c-27.3-19.3-47.6-34.2,2.7-27.2c62.2,8.7,128,15.4,113.4-21.3
			c9.2-2.8-27.4-133.9,131.6-94.1c164.7,41.1,223.2,48.9,397.5,14.4c33.3-6.7,62.4-8,88.8-5.5c134.3,12.9,189.6,125.7,392.7,102.7
			c153-17.4,124-92.6,214.4-87.7"/>
		<path class="st1" d="M-255.6,523.1c97.5-15.4,240.6-105.3,376.4,17.4c110.6,100,192.3,34.3,317.1-26.8
			c22.7-11.1,47.7-21.7,74.4-33C686.6,407.2,832.6,557.8,976,633c93,48.8,159.9,93.8,246,103c125.1,13.5,225.8-27.6,298.8-73.8
			c44.3-28,63.8-70.3,71.1-117.6c4.6-30.3,0.7-67.4-15.9-94.6c-2.6-2.1-16.4-27.1-52.8-51.4c-39-26-107.4-53.4-195.6-54.7
			c-172.3-2.7-297,290.1-14.6,400.5c21.1,8.2,63.7,16.8,87.2,9c22.7-7.6-32-34.5-15.1-44.7s24.8-21.2-11-45.3
			c-5.5-3.7-10.9-7.7-16.2-11.4c-28.5-19.7-49.6-35,1.4-27.7c62.9,9,129.6,16,114-21.3c8.2-2.5-30.2-136.5,131.6-95
			c166.9,42.8,225.2,52.1,401,17c33.7-6.8,63-8.1,89.5-5.5c135.2,13.1,189.6,128.1,395.7,103.9c155.2-18.3,124.2-95.7,215.8-91"/>
		<path class="st1" d="M-254.4,521.4c97.4-14.2,241.9-105,378.3,22.1c110.7,103.1,191.9,37.1,317.8-27.6c22.9-11.8,48-23.1,74.8-35
			c175.7-77.7,322,74.6,465.3,151.6c92.4,49.7,159,97.9,245.1,108.7c126,15.7,226.8-25.5,297.9-74.8c43.1-29.9,62.6-73.5,68.7-121.6
			c4-30.6-0.6-67-17.1-94.5c-2.3-1.8-16-27.6-52.1-52.8c-38.6-27-105.9-55.3-194.8-56.5c-175.4-2.4-305.9,293-21.9,404.8
			c21.1,8.2,64.3,17,87.8,8.9c22.9-7.8-33.4-35.4-16.4-45.8s24.7-21.8-12.3-46.4c-5.7-3.8-11.4-7.9-17-11.6
			c-29.6-20-51.6-35.8,0.3-28.2c63.6,9.3,131.2,16.7,114.6-21.4c7.2-2.2-33-139.2,131.7-95.9c169,44.4,227.3,55.3,404.5,19.7
			c34.1-6.9,63.5-8.2,90.2-5.6c136.1,13.4,189.6,130.4,398.6,105.2c157.5-19.2,124.5-98.8,217.2-94.3"/>
		<path class="st1" d="M-253.2,519.6c97.3-12.9,243.1-104.6,380.1,26.7c110.8,106.3,191.4,39.9,318.5-28.3
			c23-12.4,48.2-24.5,75.3-37c177.1-81.9,323.8,72.1,466.9,151c91.7,50.6,158,102.1,244.2,114.3c126.8,17.9,227.8-23.5,297-75.8
			c42-31.8,61.3-76.8,66.4-125.5c3.3-30.8-1.8-66.7-18.3-94.5c-2-1.6-15.6-28-51.3-54.2c-38.3-28-104.5-57.3-193.9-58.4
			c-178.4-2.1-314.8,295.9-29.1,409.1c21.2,8.3,64.8,17.1,88.5,8.9c23.1-8-34.8-36.3-17.8-46.9s24.7-22.4-13.6-47.4
			c-6-3.9-11.9-8-17.7-11.9c-30.8-20.4-53.6-36.5-1-28.7c64.3,9.6,132.7,17.3,115.2-21.4c6.1-1.8-35.8-141.9,131.7-96.8
			c171.2,46,229.4,58.6,408,22.4c34.4-7,64.1-8.4,90.9-5.7c137.1,13.6,189.6,132.8,401.5,106.3c159.7-20,124.8-102,218.6-97.5"/>
		<path class="st1" d="M-252,517.9c97.3-11.6,244.4-104.3,382,31.4c111,109.5,190.9,42.6,319.2-29.1c23.2-13,48.5-25.9,75.8-39
			c178.4-86.2,325.5,69.5,468.5,150.3c91.1,51.5,157,106.3,243.3,119.9c127.7,20.1,228.8-21.5,296-76.8c40.9-33.7,60-80,64.1-129.5
			c2.6-31-3-66.4-19.5-94.5c-1.6-1.3-15.1-28.5-50.5-55.6c-37.9-29-103-59.3-193-60.2c-181.5-1.9-323.7,298.8-36.4,413.3
			c21.2,8.4,65.4,17.3,89.2,8.9c23.3-8.3-36.2-37.1-19.2-48s24.6-23-15-48.5c-6.2-4-12.4-8.2-18.5-12.1
			c-31.9-20.8-55.6-37.3-2.2-29.2c65,9.8,134.3,18,115.8-21.4c5.1-1.5-38.6-144.5,131.8-97.7c173.4,47.7,231.4,61.9,411.5,25
			c34.8-7.2,64.7-8.5,91.6-5.8c138,13.9,189.7,135.2,404.5,107.6c161.9-20.9,125-105.1,219.9-100.8"/>
		<path class="st1" d="M-250.8,516.1c97.2-10.3,245.6-104,383.8,36c111.2,112.7,190.5,45.4,319.9-29.8c23.3-13.6,48.7-27.3,76.2-41
			c179.8-90.4,327.3,67,470.1,149.7c90.5,52.4,156,110.4,242.4,125.5c128.5,22.4,229.8-19.5,295.1-77.8
			c39.8-35.5,58.7-83.2,61.8-133.5c1.9-31.3-4.2-66-20.8-94.5c-1.3-1-14.7-28.9-49.8-57c-37.5-29.9-101.5-61.2-192.2-62
			c-184.6-1.6-332.6,301.7-43.7,417.6c21.3,8.5,66,17.5,89.9,8.8c23.5-8.5-37.7-38-20.5-49.2s24.5-23.6-16.3-49.5
			c-6.4-4.1-13-8.3-19.2-12.3c-33.1-21.1-57.6-38.1-3.4-29.7c65.7,10.1,135.8,18.6,116.3-21.5c4.1-1.2-41.3-147.2,131.8-98.6
			c175.6,49.3,233.5,65.1,415,27.7c35.1-7.3,65.3-8.6,92.3-5.9c138.9,14.2,189.7,137.5,407.4,108.8
			c164.1-21.7,125.3-108.2,221.3-104.1"/>
		<path class="st1" d="M-249.5,514.4c97.2-9,246.9-103.6,385.6,40.6c111.4,115.9,190.1,48.2,320.5-30.6c23.5-14.2,49-28.7,76.7-43
			c181-95,329.1,64.5,471.7,149.1c89.8,53.3,155,114.6,241.5,131.1c129.3,24.6,230.8-17.5,294.2-78.8
			c38.6-37.4,57.5-86.5,59.4-137.4c1.2-31.6-5.4-65.7-22-94.4c-1-0.8-14.3-29.4-49-58.4c-37.2-30.9-100.1-63.1-191.3-63.8
			c-187.7-1.3-341.5,304.6-50.9,421.8c21.3,8.6,66.6,17.7,90.6,8.8c23.7-8.8-39-38.9-21.9-50.3s24.5-24.2-17.7-50.6
			c-6.7-4.2-13.5-8.5-20-12.6c-34.2-21.5-59.6-39-4.6-30.2c66.4,10.3,137.4,19.3,116.9-21.5c3.1-0.9-44.1-149.9,131.9-99.5
			c177.8,50.9,235.5,68.4,418.5,30.4c35.5-7.4,65.9-8.8,93-6c139.8,14.4,189.7,139.9,410.4,110c166.4-22.6,125.6-111.3,222.7-107.3"
			/>
		<path class="st1" d="M-248.3,512.7c97.1-7.8,248.2-103.3,387.4,45.3c111.6,119.1,189.7,51,321.2-31.3c23.7-14.8,49.3-30,77.2-45.1
			c182.4-99.2,330.9,61.9,473.4,148.4c89.2,54.2,153.9,118.8,240.5,136.7c130.1,26.9,231.7-15.5,293.2-79.8
			c37.4-39.3,56.2-89.7,57.1-141.4c0.5-31.8-6.7-65.3-23.2-94.4c-0.7-0.5-13.8-29.9-48.2-59.8c-36.8-31.9-98.6-65-190.4-65.6
			c-190.8-0.7-350.3,307.5-58.2,426.1c21.4,8.7,67.2,17.8,91.3,8.7c23.9-9-40.5-39.8-23.3-51.4s24.4-24.8-19-51.6
			c-6.9-4.3-14-8.7-20.7-12.8c-35.3-21.8-61.6-39.7-5.8-30.7c67.1,10.6,138.9,19.9,117.5-21.5c2-0.6-46.8-152.6,131.9-100.4
			c180,52.6,237.6,71.6,422,33.1c35.8-7.5,66.4-8.9,93.7-6.1c140.7,14.7,189.8,142.3,413.3,111.2
			c168.6-23.5,125.9-114.4,224.1-110.6"/>
		<path class="st1" d="M-247.1,510.9c97-6.5,249.5-102.9,389.3,49.9c111.8,122.3,189.3,53.7,321.9-32.1
			c23.8-15.4,49.6-31.4,77.6-47.1c183.9-103.2,332.8,59.1,475,147.8c88.7,54.9,152.9,123,239.6,142.3
			c130.8,29.2,232.7-13.4,292.3-80.8c35.5-40.1,55-91.8,54.8-145.3c-0.2-32.1-7.9-65-24.4-94.4c-0.3-0.3-13.3-30.3-47.4-61.2
			c-36.4-32.9-97.1-67-189.6-67.4c-193.9-0.5-359.2,310.4-65.5,430.4c21.5,8.8,67.8,18,92,8.7s-41.9-40.6-24.6-52.5
			s24.4-25.5-20.3-52.7c-7.2-4.4-14.5-8.8-21.5-13.1c-36.5-22.2-63.6-40.4-7-31.2c67.8,10.9,140.5,20.6,118.1-21.6
			c1-0.3-49.5-155.6,132-101.3c182.3,53.9,239.7,74.9,425.5,35.7c36.2-7.6,67-9,94.4-6.2c141.6,14.9,189.8,144.6,416.2,112.4
			c170.8-24.3,126.1-117.5,225.4-113.9"/>
		<path class="st1" d="M-245.9,509.2c97-5.2,250.9-102.6,391.1,54.6c132.1,148,215.4,25.4,400.7-81.9s334.5,56.8,476.6,147.2
			c88,55.9,151.9,127.2,238.7,147.9c261,62.3,406-167.3,318.2-325.5c0,0-55.1-131.5-235.3-131.8c-197-0.4-368.1,313.3-72.7,434.6
			c21.5,8.8,68.4,18.2,92.6,8.7s-43.3-41.5-26-53.6s24.2-26-21.7-53.7s-98.9-56.3-30.4-45s142,21.2,118.7-21.6
			c0,0-52.4-158,132-102.2s241.7,78.2,429,38.4c226.2-48,240.7,147.2,514.3,107.3c173.1-25.2,126.4-120.6,226.8-117.2"/>
		
			<linearGradient id="SVGID_3_" gradientUnits="userSpaceOnUse" x1="0" y1="1275.16" x2="881.09" y2="1275.16" gradientTransform="matrix(1 0 0 -1 0 1824.66)">
			<stop  offset="0.1" style="stop-color:#FFFFFF"/>
			<stop  offset="0.22" style="stop-color:#FFFFFF;stop-opacity:0.98"/>
			<stop  offset="0.33" style="stop-color:#FFFFFF;stop-opacity:0.94"/>
			<stop  offset="0.44" style="stop-color:#FFFFFF;stop-opacity:0.86"/>
			<stop  offset="0.55" style="stop-color:#FFFFFF;stop-opacity:0.75"/>
			<stop  offset="0.67" style="stop-color:#FFFFFF;stop-opacity:0.61"/>
			<stop  offset="0.78" style="stop-color:#FFFFFF;stop-opacity:0.44"/>
			<stop  offset="0.89" style="stop-color:#FFFFFF;stop-opacity:0.23"/>
			<stop  offset="1" style="stop-color:#FFFFFF;stop-opacity:0"/>
		</linearGradient>
		<rect y="-8" class="st2" width="881.1" height="1115"/>
		
			<linearGradient id="SVGID_4_" gradientUnits="userSpaceOnUse" x1="-4586.77" y1="1275.16" x2="-3871.5898" y2="1275.16" gradientTransform="matrix(-1 0 0 -1 -2187.77 1824.66)">
			<stop  offset="0.1" style="stop-color:#FFFFFF"/>
			<stop  offset="0.22" style="stop-color:#FFFFFF;stop-opacity:0.98"/>
			<stop  offset="0.33" style="stop-color:#FFFFFF;stop-opacity:0.94"/>
			<stop  offset="0.44" style="stop-color:#FFFFFF;stop-opacity:0.86"/>
			<stop  offset="0.55" style="stop-color:#FFFFFF;stop-opacity:0.75"/>
			<stop  offset="0.67" style="stop-color:#FFFFFF;stop-opacity:0.61"/>
			<stop  offset="0.78" style="stop-color:#FFFFFF;stop-opacity:0.44"/>
			<stop  offset="0.89" style="stop-color:#FFFFFF;stop-opacity:0.23"/>
			<stop  offset="1" style="stop-color:#FFFFFF;stop-opacity:0"/>
		</linearGradient>
		<rect x="1683.8" y="-8" class="st3" width="715.2" height="1115"/>
	</g>
</g>
</svg>
